# xmcd
#
# Track frame offsets:
#	150
#	16770
#	31202
#	48450
#	68797
#	81852
#	97987
#	113312
#	130770
#	145590
#
# Disc length: 2215 seconds
#
# Revision: 1
# Processed by: cddbd v1.5.2PL0 Copyright (c) Steve Scherf et al.
# Submitted via: audiograbber 1.83.01
#
DISCID=6f08a50a
DTITLE=Christy Sutherland - Advance Music
DYEAR=2004
DGENRE=Country
TTITLE0=Freedom
TTITLE1=Stayin' up all night long
TTITLE2=Roll
TTITLE3=Men in cars
TTITLE4=Go down to The Levee
TTITLE5=Let it lie
TTITLE6=Danville
TTITLE7=Sugarcane love
TTITLE8=The girls are alright
TTITLE9=Angel Band
EXTD=2004 Sony Music Entertainment Inc. EPIC ACK 89236
EXTT0=
EXTT1=
EXTT2=
EXTT3=
EXTT4=
EXTT5=
EXTT6=
EXTT7=
EXTT8=
EXTT9=
PLAYORDER=
